<mxfile host="app.diagrams.net" agent="Mozilla/5.0 (Windows NT 10.0; Win64; x64) AppleWebKit/537.36 (KHTML, like Gecko) Chrome/136.0.0.0 Safari/537.36 Edg/136.0.0.0" version="26.3.0">
  <diagram name="Page-1" id="H-1NzI84Qsf86aomNz7f">
    <mxGraphModel dx="1164" dy="878" grid="0" gridSize="10" guides="1" tooltips="1" connect="1" arrows="1" fold="1" page="0" pageScale="1" pageWidth="827" pageHeight="1169" math="0" shadow="0">
      <root>
        <mxCell id="0" />
        <mxCell id="1" parent="0" />
        <mxCell id="cejYrl0gF7s2o6c9fpy0-2" value="开始" style="ellipse;whiteSpace=wrap;html=1;" vertex="1" parent="1">
          <mxGeometry x="160" y="20" width="120" height="60" as="geometry" />
        </mxCell>
        <mxCell id="cejYrl0gF7s2o6c9fpy0-3" value="total = 0" style="rounded=0;whiteSpace=wrap;html=1;" vertex="1" parent="1">
          <mxGeometry x="160" y="100" width="120" height="60" as="geometry" />
        </mxCell>
        <mxCell id="cejYrl0gF7s2o6c9fpy0-4" value="遍历数组 num in arr" style="rhombus;whiteSpace=wrap;html=1;" vertex="1" parent="1">
          <mxGeometry x="160" y="200" width="120" height="60" as="geometry" />
        </mxCell>
        <mxCell id="cejYrl0gF7s2o6c9fpy0-5" value="num &gt; 0 且 num &lt; 10？" style="rhombus;whiteSpace=wrap;html=1;" vertex="1" parent="1">
          <mxGeometry x="160" y="300" width="120" height="60" as="geometry" />
        </mxCell>
        <mxCell id="cejYrl0gF7s2o6c9fpy0-6" value="total += num" style="rounded=0;whiteSpace=wrap;html=1;" vertex="1" parent="1">
          <mxGeometry x="-46" y="370" width="120" height="60" as="geometry" />
        </mxCell>
        <mxCell id="cejYrl0gF7s2o6c9fpy0-7" value="num &gt;= 10？" style="rhombus;whiteSpace=wrap;html=1;" vertex="1" parent="1">
          <mxGeometry x="300" y="300" width="120" height="60" as="geometry" />
        </mxCell>
        <mxCell id="cejYrl0gF7s2o6c9fpy0-8" value="total -= num" style="rounded=0;whiteSpace=wrap;html=1;" vertex="1" parent="1">
          <mxGeometry x="300" y="400" width="120" height="60" as="geometry" />
        </mxCell>
        <mxCell id="cejYrl0gF7s2o6c9fpy0-9" value="" style="edgeStyle=elbowEdgeStyle;endArrow=block;html=1;" edge="1" parent="1" source="cejYrl0gF7s2o6c9fpy0-6" target="cejYrl0gF7s2o6c9fpy0-4">
          <mxGeometry relative="1" as="geometry" />
        </mxCell>
        <mxCell id="cejYrl0gF7s2o6c9fpy0-10" value="" style="edgeStyle=elbowEdgeStyle;endArrow=block;html=1;" edge="1" parent="1" source="cejYrl0gF7s2o6c9fpy0-8" target="cejYrl0gF7s2o6c9fpy0-4">
          <mxGeometry relative="1" as="geometry" />
        </mxCell>
        <mxCell id="cejYrl0gF7s2o6c9fpy0-11" value="total &gt; 0？" style="rhombus;whiteSpace=wrap;html=1;" vertex="1" parent="1">
          <mxGeometry x="160" y="500" width="120" height="60" as="geometry" />
        </mxCell>
        <mxCell id="cejYrl0gF7s2o6c9fpy0-12" value="返回 Positive sum" style="rounded=0;whiteSpace=wrap;html=1;" vertex="1" parent="1">
          <mxGeometry x="20" y="600" width="120" height="60" as="geometry" />
        </mxCell>
        <mxCell id="cejYrl0gF7s2o6c9fpy0-13" value="返回 Non-positive sum" style="rounded=0;whiteSpace=wrap;html=1;" vertex="1" parent="1">
          <mxGeometry x="300" y="600" width="150" height="60" as="geometry" />
        </mxCell>
        <mxCell id="cejYrl0gF7s2o6c9fpy0-14" value="结束" style="ellipse;whiteSpace=wrap;html=1;" vertex="1" parent="1">
          <mxGeometry x="160" y="700" width="120" height="60" as="geometry" />
        </mxCell>
        <mxCell id="cejYrl0gF7s2o6c9fpy0-15" value="" style="endArrow=block;html=1;" edge="1" parent="1" source="cejYrl0gF7s2o6c9fpy0-2" target="cejYrl0gF7s2o6c9fpy0-3">
          <mxGeometry relative="1" as="geometry" />
        </mxCell>
        <mxCell id="cejYrl0gF7s2o6c9fpy0-16" value="" style="endArrow=block;html=1;" edge="1" parent="1" source="cejYrl0gF7s2o6c9fpy0-3" target="cejYrl0gF7s2o6c9fpy0-4">
          <mxGeometry relative="1" as="geometry" />
        </mxCell>
        <mxCell id="cejYrl0gF7s2o6c9fpy0-17" value="" style="endArrow=block;html=1;" edge="1" parent="1" source="cejYrl0gF7s2o6c9fpy0-4" target="cejYrl0gF7s2o6c9fpy0-5">
          <mxGeometry relative="1" as="geometry" />
        </mxCell>
        <mxCell id="cejYrl0gF7s2o6c9fpy0-18" value="是" style="endArrow=block;html=1;" edge="1" parent="1" source="cejYrl0gF7s2o6c9fpy0-5" target="cejYrl0gF7s2o6c9fpy0-6">
          <mxGeometry relative="1" as="geometry" />
        </mxCell>
        <mxCell id="cejYrl0gF7s2o6c9fpy0-19" value="否" style="endArrow=block;html=1;" edge="1" parent="1" source="cejYrl0gF7s2o6c9fpy0-5" target="cejYrl0gF7s2o6c9fpy0-7">
          <mxGeometry relative="1" as="geometry" />
        </mxCell>
        <mxCell id="cejYrl0gF7s2o6c9fpy0-20" value="是" style="endArrow=block;html=1;" edge="1" parent="1" source="cejYrl0gF7s2o6c9fpy0-7" target="cejYrl0gF7s2o6c9fpy0-8">
          <mxGeometry relative="1" as="geometry" />
        </mxCell>
        <mxCell id="cejYrl0gF7s2o6c9fpy0-21" value="否(跳过)" style="endArrow=block;html=1;" edge="1" parent="1" source="cejYrl0gF7s2o6c9fpy0-7" target="cejYrl0gF7s2o6c9fpy0-11">
          <mxGeometry relative="1" as="geometry" />
        </mxCell>
        <mxCell id="cejYrl0gF7s2o6c9fpy0-22" value="" style="endArrow=block;html=1;" edge="1" parent="1" source="cejYrl0gF7s2o6c9fpy0-4" target="cejYrl0gF7s2o6c9fpy0-11">
          <mxGeometry relative="1" as="geometry" />
        </mxCell>
        <mxCell id="cejYrl0gF7s2o6c9fpy0-23" value="是" style="endArrow=block;html=1;" edge="1" parent="1" source="cejYrl0gF7s2o6c9fpy0-11" target="cejYrl0gF7s2o6c9fpy0-12">
          <mxGeometry relative="1" as="geometry" />
        </mxCell>
        <mxCell id="cejYrl0gF7s2o6c9fpy0-24" value="否" style="endArrow=block;html=1;" edge="1" parent="1" source="cejYrl0gF7s2o6c9fpy0-11" target="cejYrl0gF7s2o6c9fpy0-13">
          <mxGeometry relative="1" as="geometry" />
        </mxCell>
        <mxCell id="cejYrl0gF7s2o6c9fpy0-25" value="" style="endArrow=block;html=1;" edge="1" parent="1" source="cejYrl0gF7s2o6c9fpy0-12" target="cejYrl0gF7s2o6c9fpy0-14">
          <mxGeometry relative="1" as="geometry" />
        </mxCell>
        <mxCell id="cejYrl0gF7s2o6c9fpy0-26" value="" style="endArrow=block;html=1;" edge="1" parent="1" source="cejYrl0gF7s2o6c9fpy0-13" target="cejYrl0gF7s2o6c9fpy0-14">
          <mxGeometry relative="1" as="geometry" />
        </mxCell>
      </root>
    </mxGraphModel>
  </diagram>
</mxfile>
